HIERARCHY
ROOT Hips
{
    OFFSET 0.000000 0.000000 0.000000
    CHANNELS 6 Xposition Yposition Zposition Zrotation Xrotation Yrotation
    JOINT Spine
    {
        OFFSET -0.000000 14.517291 0.000000
        CHANNELS 3 Zrotation Xrotation Yrotation
        JOINT Spine1
        {
            OFFSET -0.000000 37.558300 0.000000
            CHANNELS 3 Zrotation Xrotation Yrotation
            JOINT Neck
            {
                OFFSET -0.000000 37.404057 3.400369
                CHANNELS 3 Zrotation Xrotation Yrotation
                JOINT Head
                {
                    OFFSET -0.000000 24.785618 -3.540803
                    CHANNELS 3 Zrotation Xrotation Yrotation
                    End Site
                    {
                        OFFSET -0.000000 35.408028 0.000000
                    }
                }
            }
            JOINT LeftShoulder
            {
                OFFSET 6.992933 33.973492 -0.192664
                CHANNELS 3 Zrotation Xrotation Yrotation
                JOINT LeftArm
                {
                    OFFSET 21.527611 0.000000 0.000000
                    CHANNELS 3 Zrotation Xrotation Yrotation
                    JOINT LeftForeArm
                    {
                        OFFSET 56.353916 0.000000 0.000000
                        CHANNELS 3 Zrotation Xrotation Yrotation
                        JOINT LeftHand
                        {
                            OFFSET 47.774071 0.000000 0.000000
                            CHANNELS 3 Zrotation Xrotation Yrotation
                            End Site
                            {
                                OFFSET 26.556021 0.000000 0.000000
                            }
                        }
                    }
                }
            }
            JOINT RightShoulder
            {
                OFFSET -7.065357 33.973492 -0.192664
                CHANNELS 3 Zrotation Xrotation Yrotation
                JOINT RightArm
                {
                    OFFSET -21.527611 0.000000 0.000000
                    CHANNELS 3 Zrotation Xrotation Yrotation
                    JOINT RightForeArm
                    {
                        OFFSET -56.353916 0.000000 0.000000
                        CHANNELS 3 Zrotation Xrotation Yrotation
                        JOINT RightHand
                        {
                            OFFSET -47.774071 0.000000 0.000000
                            CHANNELS 3 Zrotation Xrotation Yrotation
                            End Site
                            {
                                OFFSET -26.556021 0.000000 0.000000
                            }
                        }
                    }
                }
            }
        }
    }
    JOINT LeftUpLeg
    {
        OFFSET 17.704014 0.000000 0.000000
        CHANNELS 3 Zrotation Xrotation Yrotation
        JOINT LeftLeg
        {
            OFFSET -0.000000 -81.181816 0.000000
            CHANNELS 3 Zrotation Xrotation Yrotation
            JOINT LeftFoot
            {
                OFFSET -0.000000 -62.821102 0.000000
                CHANNELS 3 Zrotation Xrotation Yrotation
                JOINT LeftToeBase
                {
                    OFFSET -0.000000 -11.507608 26.556021
                    CHANNELS 3 Zrotation Xrotation Yrotation
                    End Site
                    {
                        OFFSET -0.000000 0.000000 7.081605
                    }
                }
            }
        }
    }
    JOINT RightUpLeg
    {
        OFFSET -17.704014 0.000000 0.000000
        CHANNELS 3 Zrotation Xrotation Yrotation
        JOINT RightLeg
        {
            OFFSET -0.000000 -81.181816 0.000000
            CHANNELS 3 Zrotation Xrotation Yrotation
            JOINT RightFoot
            {
                OFFSET -0.000000 -62.821102 0.000000
                CHANNELS 3 Zrotation Xrotation Yrotation
                JOINT RightToeBase
                {
                    OFFSET -0.000000 -11.507608 26.556021
                    CHANNELS 3 Zrotation Xrotation Yrotation
                    End Site
                    {
                        OFFSET -0.000000 0.000000 7.081605
                    }
                }
            }
        }
    }
}
MOTION
Frames:    12
Frame Time:    0.008333
40.975208    153.279251    -101.159378    -3.026410    -4.443567    46.823978    0.828339    -2.236132    -3.190521    -6.197100    2.837955    -0.917015    4.563323    3.503991    -20.193844    14.592738    -0.535448    -19.513474    7.520580    8.407946    -20.049038    -33.167282    22.969275    -51.921085    -6.164463    -11.416911    -117.211548    0.730055    -21.172548    -6.402973    -14.912052    -4.556783    -6.786205    17.490629    -21.416351    47.650715    -14.370236    -16.417236    45.518749    4.429932    -9.254822    32.337025    7.859315    1.085937    -9.620007    -13.708475    39.977966    -23.834099    18.867132    -29.402304    49.101864    0.000000    0.000000    0.000000    -1.546778    -32.835247    5.783463    10.615386    21.456814    -12.009166    -0.410848    16.726267    -10.668091    0.000000    0.000000    0.000000    
40.859367    153.251892    -101.275208    -3.036440    -4.522965    46.852123    0.843354    -2.259373    -3.180425    -6.190329    2.833491    -0.914251    4.547831    3.449296    -20.183092    14.564059    -0.355364    -19.529381    7.509895    8.380706    -20.091028    -33.185539    22.907385    -51.916729    -6.208034    -11.402771    -117.162132    0.712717    -21.215622    -6.387205    -14.931149    -4.593937    -6.788165    17.445974    -21.231728    47.624187    -14.414056    -16.457293    45.387074    4.477156    -9.283115    32.341759    7.873327    0.798630    -9.611715    -13.810177    40.533962    -23.749323    18.850798    -29.446144    49.212677    0.000000    0.000000    0.000000    -1.568291    -32.828213    5.734013    10.646228    21.399807    -12.053536    -0.269158    16.895100    -10.633472    0.000000    0.000000    0.000000    
40.729557    153.213013    -101.418159    -3.043389    -4.626819    46.871693    0.877858    -2.257066    -3.213968    -6.185479    2.802201    -0.927458    4.531437    3.462660    -20.135656    14.537707    -0.227209    -19.496782    7.496912    8.392671    -20.046577    -33.146252    22.898840    -51.949741    -6.207360    -11.477273    -117.130943    0.694504    -21.278843    -6.426187    -14.936127    -4.521494    -6.681371    17.384672    -21.191938    47.580788    -14.379663    -16.483442    45.292877    4.507885    -9.329334    32.343784    7.926324    0.515460    -9.749109    -14.131905    41.048992    -23.505449    18.933723    -29.441128    49.415993    0.000000    0.000000    0.000000    -1.574787    -32.819710    5.694030    10.674891    21.347847    -12.104705    -0.169709    17.089838    -10.552476    0.000000    0.000000    0.000000    
40.599686    153.161240    -101.552513    -3.036562    -4.754443    46.884186    0.905659    -2.264854    -3.178050    -6.174338    2.825621    -0.914674    4.545457    3.465297    -20.139351    14.496771    -0.134004    -19.519581    7.521977    8.380110    -20.129631    -33.149658    22.853960    -51.928596    -6.215971    -11.537820    -117.117882    0.769383    -21.351171    -6.432034    -14.945483    -4.547090    -6.714147    17.401560    -21.178898    47.594902    -14.215781    -16.318937    45.234558    4.481383    -9.247100    32.291065    8.005960    0.291695    -9.908528    -14.547535    41.486977    -23.140240    19.063889    -29.428043    49.619656    0.000000    0.000000    0.000000    -1.572473    -32.788826    5.685299    10.722318    21.299746    -12.211037    -0.024042    17.265556    -10.469469    0.000000    0.000000    0.000000    
40.461983    153.104599    -101.712486    -3.018970    -4.893036    46.919094    0.978496    -2.230776    -3.168702    -6.212790    2.810701    -0.911762    4.481688    3.426809    -20.142992    14.537169    0.021438    -19.531485    7.517588    8.359351    -20.165051    -33.179131    22.790773    -51.880836    -6.238795    -11.518043    -117.121696    0.720458    -21.365463    -6.455556    -14.947094    -4.506036    -6.758492    17.411663    -21.168745    47.648327    -14.073672    -16.246212    45.186943    4.477303    -9.239992    32.287182    8.098290    0.124957    -10.061517    -14.988976    41.808159    -22.781300    19.269119    -29.381872    49.848145    0.000000    0.000000    0.000000    -1.592701    -32.749233    5.606417    10.768690    21.255770    -12.346131    0.058103    17.458469    -10.313126    0.000000    0.000000    0.000000    
40.337406    153.045303    -101.868248    -2.974096    -5.056812    46.923691    1.004299    -2.216169    -3.152987    -6.210129    2.842340    -0.904976    4.532768    3.434740    -20.095108    14.447702    0.096303    -19.508379    7.572667    8.414193    -20.144451    -33.152496    22.769791    -51.964432    -6.183477    -11.681167    -117.076523    0.595696    -21.420595    -6.505862    -14.920993    -4.514334    -6.702269    17.363899    -21.165468    47.609928    -13.935573    -16.094473    45.104568    4.431638    -9.168019    32.249981    8.193422    0.082052    -10.145367    -15.350887    42.008389    -22.477814    19.510506    -29.338137    50.017216    0.000000    0.000000    0.000000    -1.584540    -32.679192    5.497777    10.762479    21.247934    -12.362514    0.202392    17.625010    -10.198717    0.000000    0.000000    0.000000    
40.216560    152.970871    -102.028336    -2.889066    -5.266131    46.907833    1.065433    -2.143963    -3.099080    -6.234081    2.880159    -0.884492    4.473758    3.518101    -20.126381    14.531446    0.132513    -19.524137    7.591408    8.393094    -20.188810    -33.165958    22.738274    -51.917812    -6.136982    -11.754988    -117.096939    0.647473    -21.425396    -6.472954    -14.939098    -4.477646    -6.724807    17.339565    -21.138023    47.606625    -13.828813    -16.009895    45.038944    4.362074    -9.152388    32.307281    8.285884    0.172959    -10.085706    -15.510141    42.132011    -22.354212    19.750122    -29.362316    50.121910    0.000000    0.000000    0.000000    -1.570092    -32.542107    5.443470    10.787512    21.210594    -12.383635    0.316218    17.781858    -10.101808    0.000000    0.000000    0.000000    
40.103405    152.903580    -102.207993    -2.780773    -5.448462    46.893501    1.093100    -2.113370    -3.082144    -6.269438    2.952716    -0.873993    4.485224    3.544940    -20.089252    14.470991    0.192534    -19.501019    7.602460    8.397002    -20.147461    -33.105545    22.757309    -51.933758    -6.070293    -11.958769    -117.084274    0.514563    -21.507746    -6.494215    -14.965882    -4.519963    -6.703697    17.393703    -21.118176    47.640209    -13.675756    -15.823601    44.941078    4.330898    -9.046206    32.337421    8.293769    0.304387    -9.889022    -15.367658    42.227997    -22.408806    19.887144    -29.454260    50.090073    0.000000    0.000000    0.000000    -1.598098    -32.409527    5.329088    10.773724    21.182528    -12.411121    0.453165    17.954542    -9.918755    0.000000    0.000000    0.000000    
39.987080    152.839630    -102.421555    -2.664411    -5.619326    46.843956    1.101811    -2.051928    -3.004155    -6.287405    2.979507    -0.845852    4.568242    3.547383    -20.086370    14.295342    0.277013    -19.541712    7.629589    8.405643    -20.197109    -33.172836    22.695238    -51.867973    -6.054324    -11.959708    -117.098015    0.637792    -21.493294    -6.515543    -14.951977    -4.422631    -6.730015    17.391613    -21.206963    47.685776    -13.494074    -15.668949    44.911198    4.282863    -8.983497    32.270004    8.241860    0.436057    -9.627872    -15.055268    42.345402    -22.524950    19.943661    -29.597300    49.973061    0.000000    0.000000    0.000000    -1.626191    -32.281288    5.279638    10.768241    21.104074    -12.544148    0.542535    18.196127    -9.658420    0.000000    0.000000    0.000000    
39.859409    152.784576    -102.658234    -2.553406    -5.753790    46.790596    1.096006    -2.055960    -2.941520    -6.332347    3.037528    -0.820587    4.539640    3.668357    -20.073935    14.355583    0.281314    -19.512768    7.619833    8.407608    -20.205206    -33.155895    22.677645    -51.812775    -5.996493    -12.055069    -117.085419    0.630038    -21.492630    -6.554292    -14.937188    -4.440291    -6.714360    17.330637    -21.107237    47.660065    -13.376941    -15.649664    44.876202    4.351810    -8.999207    32.223598    8.144891    0.500030    -9.415275    -14.699923    42.526859    -22.747845    19.956249    -29.740557    49.920841    0.000000    0.000000    0.000000    -1.686408    -32.167839    5.225282    10.771782    20.971992    -12.635835    0.639854    18.474800    -9.459580    0.000000    0.000000    0.000000    
39.721310    152.740524    -102.917847    -2.435223    -5.870773    46.740940    1.062370    -2.063195    -2.915130    -6.353800    3.094127    -0.807858    4.509245    3.605856    -20.048754    14.283913    0.514375    -19.523750    7.570737    8.381392    -20.169487    -33.190044    22.664789    -51.700634    -6.003279    -12.052109    -117.094261    0.659012    -21.503515    -6.570131    -14.998137    -4.443119    -6.703146    17.395905    -21.004999    47.695137    -13.284804    -15.628161    44.834297    4.361744    -9.015409    32.290005    8.007288    0.512367    -9.267190    -14.343060    42.765514    -23.063906    19.973965    -29.838589    49.990120    0.000000    0.000000    0.000000    -1.777083    -32.047729    5.187837    10.785116    20.786898    -12.713941    0.737950    18.795090    -9.283977    0.000000    0.000000    0.000000    
39.554085    152.699554    -103.218506    -2.339158    -5.956090    46.694221    1.018881    -2.068187    -2.868795    -6.373259    3.094088    -0.791725    4.512685    3.660950    -20.041508    14.214423    0.600595    -19.534040    7.525651    8.372653    -20.161036    -33.227631    22.630718    -51.591625    -5.852927    -12.020852    -117.017464    0.576889    -21.225201    -6.714308    -15.009922    -4.350797    -6.702512    17.373230    -20.927101    47.716110    -13.245913    -15.678359    44.802551    4.459863    -9.058184    32.314381    7.856318    0.406822    -9.278975    -14.155141    43.077610    -23.304209    20.043337    -29.858709    50.210659    0.000000    0.000000    0.000000    -1.845248    -31.980951    5.079065    10.691275    20.628319    -12.626545    0.901933    19.137421    -9.173116    0.000000    0.000000    0.000000    
